<svg xmlns="http://www.w3.org/2000/svg" viewBox="0 0 250.5 176.4" style=""><title>laks</title><path width="249.5" height="175.36" fill="none" stroke="#f63249" stroke-miterlimit="10" d="M0.5 0.5 L250 0.5 L250 175.86 L0.5 175.86 Z" class="jjERlItb_0"></path><path width="41.5" height="41.46" fill="none" stroke="#f63249" stroke-miterlimit="10" stroke-width="0.5" d="M17.2 30 L58.7 30 L58.7 71.46000000000001 L17.2 71.46000000000001 Z" class="jjERlItb_1"></path><path width="41.5" height="41.46" fill="none" stroke="#f63249" stroke-miterlimit="10" stroke-width="0.5" d="M60.9 30 L102.4 30 L102.4 71.46000000000001 L60.9 71.46000000000001 Z" class="jjERlItb_2"></path><path width="41.5" height="41.46" fill="none" stroke="#f63249" stroke-miterlimit="10" stroke-width="0.5" d="M104.5 30 L146 30 L146 71.46000000000001 L104.5 71.46000000000001 Z" class="jjERlItb_3"></path><path width="41.5" height="41.46" fill="none" stroke="#f63249" stroke-miterlimit="10" stroke-width="0.5" d="M148.2 30 L189.7 30 L189.7 71.46000000000001 L148.2 71.46000000000001 Z" class="jjERlItb_4"></path><path width="41.5" height="41.46" fill="none" stroke="#f63249" stroke-miterlimit="10" stroke-width="0.5" d="M191.8 30 L233.3 30 L233.3 71.46000000000001 L191.8 71.46000000000001 Z" class="jjERlItb_5"></path><path width="41.5" height="41.46" fill="none" stroke="#f63249" stroke-miterlimit="10" stroke-width="0.5" d="M17.2 77.5 L58.7 77.5 L58.7 118.96000000000001 L17.2 118.96000000000001 Z" class="jjERlItb_6"></path><path width="41.5" height="41.46" fill="none" stroke="#f63249" stroke-miterlimit="10" stroke-width="0.5" d="M60.9 77.5 L102.4 77.5 L102.4 118.96000000000001 L60.9 118.96000000000001 Z" class="jjERlItb_7"></path><path width="41.5" height="41.46" fill="none" stroke="#f63249" stroke-miterlimit="10" stroke-width="0.5" d="M104.5 77.5 L146 77.5 L146 118.96000000000001 L104.5 118.96000000000001 Z" class="jjERlItb_8"></path><path width="41.5" height="41.46" fill="none" stroke="#f63249" stroke-miterlimit="10" stroke-width="0.5" d="M148.2 77.5 L189.7 77.5 L189.7 118.96000000000001 L148.2 118.96000000000001 Z" class="jjERlItb_9"></path><path width="41.5" height="41.46" fill="none" stroke="#f63249" stroke-miterlimit="10" stroke-width="0.5" d="M191.8 77.5 L233.3 77.5 L233.3 118.96000000000001 L191.8 118.96000000000001 Z" class="jjERlItb_10"></path><path width="41.5" height="41.46" fill="none" stroke="#f63249" stroke-miterlimit="10" stroke-width="0.5" d="M17.2 124.9 L58.7 124.9 L58.7 166.36 L17.2 166.36 Z" class="jjERlItb_11"></path><path width="41.5" height="41.46" fill="none" stroke="#f63249" stroke-miterlimit="10" stroke-width="0.5" d="M60.9 124.9 L102.4 124.9 L102.4 166.36 L60.9 166.36 Z" class="jjERlItb_12"></path><path width="41.5" height="41.46" fill="none" stroke="#f63249" stroke-miterlimit="10" stroke-width="0.5" d="M104.5 124.9 L146 124.9 L146 166.36 L104.5 166.36 Z" class="jjERlItb_13"></path><path width="41.5" height="41.46" fill="none" stroke="#f63249" stroke-miterlimit="10" stroke-width="0.5" d="M148.2 124.9 L189.7 124.9 L189.7 166.36 L148.2 166.36 Z" class="jjERlItb_14"></path><path width="41.5" height="41.46" fill="none" stroke="#f63249" stroke-miterlimit="10" stroke-width="0.5" d="M191.8 124.9 L233.3 124.9 L233.3 166.36 L191.8 166.36 Z" class="jjERlItb_15"></path><path d="M14.6,18.4l2.6-.4h0.6l0.3,0.2c0.1,0.1.1,0.1,0,.1l-0.8.2-1.9.4-1.4.2H12l-0.8-.3a1.2,1.2,0,0,1-.6-0.9,4.5,4.5,0,0,1,0-.5,5.7,5.7,0,0,1,0-.6,11.6,11.6,0,0,1,.7-2.5,36.7,36.7,0,0,1,2.6-5.6l0.9-1.6,0.6-1.2,0.4-.6h0.7a0.7,0.7,0,0,1,.4.5,4.3,4.3,0,0,1-.2,1.3,11.1,11.1,0,0,1-.8,1.9q-1.1,2.2-2,4.1L13,15.1l-0.6,1.3v1.3a1.6,1.6,0,0,0,.1.5,0.5,0.5,0,0,0,.4.3h2.1Z" class="jjERlItb_16"></path><path d="M19,14.2h0.2v0.2l-0.2.3L18,16.3a1.4,1.4,0,0,1-1,.6,0.7,0.7,0,0,1-.5-0.4,0.6,0.6,0,0,1-.1-0.4H16.3a1.4,1.4,0,0,1-.9.3H14.7a0.5,0.5,0,0,1-.3-0.6V15a3.3,3.3,0,0,1,.8-1.4l0.5-.2,0.5,0.2a0.6,0.6,0,0,1,.3.5v0.6a1.5,1.5,0,0,1,0,.3H16.5V14.6L16.3,14H16.2a3.7,3.7,0,0,0-.7,1.6h0.2a3.1,3.1,0,0,0,.9-0.8l0.5-.7h0.2a0.3,0.3,0,0,1,.1.3v0.2l-0.3,1.1v0.7h0.5l0.2-.2L18.6,15l0.2-.3V14.2Z" class="jjERlItb_17"></path><path d="M24.4,14.4H24.3l-1.6.9-1.5.8-0.6.2H20.4V16.2H20.3l-1,1-0.3.2H18.3c-0.1,0-.2-0.1-0.2-0.2a1.8,1.8,0,0,1,.2-0.8l1-2.6V13.5l0.5-1,1.9-3.8,0.8-1.5,0.6-1L23.2,6V5.9h0.4a0.4,0.4,0,0,1,.3.2,0.5,0.5,0,0,1,0,.2,4.1,4.1,0,0,1-.1.8,8.9,8.9,0,0,1-.9,2.1V9.7l-0.2.4a29.3,29.3,0,0,1-2.2,4.7v0.2l-0.3.6,1.5-1.3,0.5-.4h0.4l-0.2.3-0.9,1-0.4.5v0.2h0.3l1.5-.8,1.6-.9h0.2Z" class="jjERlItb_18"></path><path d="M27.7,14.4h0.1a0.2,0.2,0,0,1-.2.2L25.4,16l-0.2.3v0.6a2.6,2.6,0,0,1-.8,1.3,1.9,1.9,0,0,1-1.4.6H22.5a0.3,0.3,0,0,1-.3-0.4,0.9,0.9,0,0,1,.2-0.5l0.7-.7,0.6-.5a0.4,0.4,0,0,0,.2-0.4,8.6,8.6,0,0,0-.1-1.2V14.7a1.3,1.3,0,0,1,0-.3V13.9a1,1,0,0,1,.7-0.8h1.2l0.4,0.2v0.2H26l-0.4.2a0.8,0.8,0,0,0-.3.5q0,0.3-.1.6t0,0.5h0.1l0.5-.3,0.5-.3,0.6-.3,0.6-.2h0Zm-4,2.8H23.6l-0.7.8H23a1.5,1.5,0,0,0,.7-0.8h0Z" class="jjERlItb_19"></path><path d="M31.9,12.3v0.2H29.8l-0.6,1.1-0.3.5-0.2.4-0.4.8-0.5,1.3V17h1.1a4,4,0,0,0,1.1-.9l0.5-.6,0.5-.6,0.2-.2h0.3l-0.5.7-0.6.8-0.8.8-0.9.6-0.8.2H27.6a1.1,1.1,0,0,1-.8-0.6,1,1,0,0,1,0-.3,6.8,6.8,0,0,1,.2-1.3l0.2-.9,0.5-1.3,0.3-.8,0.2-.3H27.6l-1.3-.2H26.2a0.1,0.1,0,0,1,0-.2h0.3l1.8,0.2h0.1l0.4-.6,0.3-.4,0.5-.6h0.6a0.6,0.6,0,0,1,.5.2l0.2,0.3v0.3l-0.4.9h0l-0.2.3h0.2l1.4,0.2h0.1Z" class="jjERlItb_20"></path><path d="M35,14h0.1a0.2,0.2,0,0,1-.1.2H33.4a4.9,4.9,0,0,1-.2,1l-0.5,1.2-0.2.4-0.4.2H31L30.5,17a0.7,0.7,0,0,1-.3-0.5,2.1,2.1,0,0,1,.4-1.2,3.9,3.9,0,0,1,.6-1h0.9l0.2,0.3a0.2,0.2,0,0,1,0,.2V15l-0.3.7-0.2.5h0.1a5.1,5.1,0,0,0,1-1.7H32.4l-0.2-.2a0.8,0.8,0,0,1-.2-0.4,0.9,0.9,0,0,1,.1-0.4,1.1,1.1,0,0,1,.6-0.5h0.6a0.5,0.5,0,0,1,.1.3v0.7h0.1l0.7,0.2H35Zm-1.9-.9V13H32.9l-0.2.3v0.4h0.4V13.2Z" class="jjERlItb_21"></path><path d="M39.2,14.5H39.1l-0.7.7-0.7.5h-1l-0.4-.3a0.5,0.5,0,0,1,0-.2V14.8H36.3l-0.7.7v0.2H35.4l-0.2.3a0.7,0.7,0,0,1-.6.4H33.9a0.1,0.1,0,0,1-.1-0.2l0.3-.7a7,7,0,0,1,.9-1.5h0.2l0.2-.2h0.5L36,14a0.4,0.4,0,0,1,0,.3v0.3h1.1a0.4,0.4,0,0,1,.1.3v0.7h0.2l0.7-.4,0.5-.4,0.3-.3h0.4Z" class="jjERlItb_22"></path><style>.jjERlItb_0{stroke-dasharray:850 852;stroke-dashoffset:851;animation:jjERlItb_draw 238ms ease-in 0ms forwards;}.jjERlItb_1{stroke-dasharray:166 168;stroke-dashoffset:167;animation:jjERlItb_draw 46ms ease-in 238ms forwards;}.jjERlItb_2{stroke-dasharray:166 168;stroke-dashoffset:167;animation:jjERlItb_draw 46ms ease-in 284ms forwards;}.jjERlItb_3{stroke-dasharray:166 168;stroke-dashoffset:167;animation:jjERlItb_draw 46ms ease-in 331ms forwards;}.jjERlItb_4{stroke-dasharray:166 168;stroke-dashoffset:167;animation:jjERlItb_draw 46ms ease-in 378ms forwards;}.jjERlItb_5{stroke-dasharray:166 168;stroke-dashoffset:167;animation:jjERlItb_draw 46ms ease-in 425ms forwards;}.jjERlItb_6{stroke-dasharray:166 168;stroke-dashoffset:167;animation:jjERlItb_draw 46ms ease-in 472ms forwards;}.jjERlItb_7{stroke-dasharray:166 168;stroke-dashoffset:167;animation:jjERlItb_draw 46ms ease-in 518ms forwards;}.jjERlItb_8{stroke-dasharray:166 168;stroke-dashoffset:167;animation:jjERlItb_draw 46ms ease-in 565ms forwards;}.jjERlItb_9{stroke-dasharray:166 168;stroke-dashoffset:167;animation:jjERlItb_draw 46ms ease-in 612ms forwards;}.jjERlItb_10{stroke-dasharray:166 168;stroke-dashoffset:167;animation:jjERlItb_draw 46ms ease-in 659ms forwards;}.jjERlItb_11{stroke-dasharray:166 168;stroke-dashoffset:167;animation:jjERlItb_draw 46ms ease-in 705ms forwards;}.jjERlItb_12{stroke-dasharray:166 168;stroke-dashoffset:167;animation:jjERlItb_draw 46ms ease-in 752ms forwards;}.jjERlItb_13{stroke-dasharray:166 168;stroke-dashoffset:167;animation:jjERlItb_draw 46ms ease-in 799ms forwards;}.jjERlItb_14{stroke-dasharray:166 168;stroke-dashoffset:167;animation:jjERlItb_draw 46ms ease-in 846ms forwards;}.jjERlItb_15{stroke-dasharray:166 168;stroke-dashoffset:167;animation:jjERlItb_draw 46ms ease-in 892ms forwards;}.jjERlItb_16{stroke-dasharray:44 46;stroke-dashoffset:45;animation:jjERlItb_draw 12ms ease-in 939ms forwards;}.jjERlItb_17{stroke-dasharray:24 26;stroke-dashoffset:25;animation:jjERlItb_draw 6ms ease-in 952ms forwards;}.jjERlItb_18{stroke-dasharray:41 43;stroke-dashoffset:42;animation:jjERlItb_draw 11ms ease-in 959ms forwards;}.jjERlItb_19{stroke-dasharray:24 26;stroke-dashoffset:25;animation:jjERlItb_draw 6ms ease-in 970ms forwards;}.jjERlItb_20{stroke-dasharray:36 38;stroke-dashoffset:37;animation:jjERlItb_draw 10ms ease-in 977ms forwards;}.jjERlItb_21{stroke-dasharray:23 25;stroke-dashoffset:24;animation:jjERlItb_draw 6ms ease-in 988ms forwards;}.jjERlItb_22{stroke-dasharray:17 19;stroke-dashoffset:18;animation:jjERlItb_draw 5ms ease-in 994ms forwards;}@keyframes jjERlItb_draw{100%{stroke-dashoffset:0;}}@keyframes jjERlItb_fade{0%{stroke-opacity:1;}92.3076923076923%{stroke-opacity:1;}100%{stroke-opacity:0;}}</style></svg>