<svg xmlns="http://www.w3.org/2000/svg" viewBox="0 0 250.5 176.4" style=""><title>port-glyph2</title><path width="249.5" height="175.36" fill="none" stroke="#f63249" stroke-miterlimit="10" d="M0.5 0.5 L250 0.5 L250 175.86 L0.5 175.86 Z" class="HjJuQnEN_0"></path><path width="41" height="136.23" fill="#fff" stroke="#f63249" stroke-miterlimit="10" d="M200.5 20.1 L241.5 20.1 L241.5 156.32999999999998 L200.5 156.32999999999998 Z" class="HjJuQnEN_1"></path><path width="44.1" height="146.38" fill="#fff" stroke="#f63249" stroke-miterlimit="10" d="M169 15 L213.1 15 L213.1 161.38 L169 161.38 Z" class="HjJuQnEN_2"></path><path width="46" height="152.92" fill="#fff" stroke="#f63249" stroke-miterlimit="10" d="M138 11.7 L184 11.7 L184 164.61999999999998 L138 164.61999999999998 Z" class="HjJuQnEN_3"></path><path width="41" height="136.23" transform="translate(83 176.4) rotate(180)" fill="#fff" stroke="#f63249" stroke-miterlimit="10" d="M21 20.1 L62 20.1 L62 156.32999999999998 L21 156.32999999999998 Z" class="HjJuQnEN_4"></path><path width="44.1" height="146.38" transform="translate(143 176.4) rotate(180)" fill="#fff" stroke="#f63249" stroke-miterlimit="10" d="M49.5 15 L93.6 15 L93.6 161.38 L49.5 161.38 Z" class="HjJuQnEN_5"></path><path width="46" height="152.92" transform="translate(203 176.4) rotate(180)" fill="#fff" stroke="#f63249" stroke-miterlimit="10" d="M78.5 11.7 L124.5 11.7 L124.5 164.61999999999998 L78.5 164.61999999999998 Z" class="HjJuQnEN_6"></path><path width="48.1" height="159.66" fill="#fff" stroke="#f63249" stroke-miterlimit="10" d="M107 8.4 L155.1 8.4 L155.1 168.06 L107 168.06 Z" class="HjJuQnEN_7"></path><path fill="none" stroke="#f63249" stroke-miterlimit="10" d="M9.8,0.5L9.8,175.9" class="HjJuQnEN_8"></path><style>.HjJuQnEN_0{stroke-dasharray:850 852;stroke-dashoffset:851;animation:HjJuQnEN_draw 1000ms ease-in-out 0ms forwards;}.HjJuQnEN_1{stroke-dasharray:355 357;stroke-dashoffset:356;animation:HjJuQnEN_draw 1000ms ease-in-out 0ms forwards;}.HjJuQnEN_2{stroke-dasharray:381 383;stroke-dashoffset:382;animation:HjJuQnEN_draw 1000ms ease-in-out 0ms forwards;}.HjJuQnEN_3{stroke-dasharray:398 400;stroke-dashoffset:399;animation:HjJuQnEN_draw 1000ms ease-in-out 0ms forwards;}.HjJuQnEN_4{stroke-dasharray:355 357;stroke-dashoffset:356;animation:HjJuQnEN_draw 1000ms ease-in-out 0ms forwards;}.HjJuQnEN_5{stroke-dasharray:381 383;stroke-dashoffset:382;animation:HjJuQnEN_draw 1000ms ease-in-out 0ms forwards;}.HjJuQnEN_6{stroke-dasharray:398 400;stroke-dashoffset:399;animation:HjJuQnEN_draw 1000ms ease-in-out 0ms forwards;}.HjJuQnEN_7{stroke-dasharray:416 418;stroke-dashoffset:417;animation:HjJuQnEN_draw 1000ms ease-in-out 0ms forwards;}.HjJuQnEN_8{stroke-dasharray:176 178;stroke-dashoffset:177;animation:HjJuQnEN_draw 1000ms ease-in-out 0ms forwards;}@keyframes HjJuQnEN_draw{100%{stroke-dashoffset:0;}}@keyframes HjJuQnEN_fade{0%{stroke-opacity:1;}92.3076923076923%{stroke-opacity:1;}100%{stroke-opacity:0;}}</style></svg>