<svg xmlns="http://www.w3.org/2000/svg" viewBox="0 0 474.8 402"><title>check</title><path d="M396.3,220.7a7.6,7.6,0,0,0-3.4-.9,9,9,0,0,0-6.6,2.9L368,241a8.6,8.6,0,0,0-2.6,6.3v72.5a45.8,45.8,0,0,1-45.7,45.7H82.2A44,44,0,0,1,50,352a44,44,0,0,1-13.4-32.3V82.2A44,44,0,0,1,50,50,44,44,0,0,1,82.2,36.5H319.8a50.7,50.7,0,0,1,12.8,1.7,9.2,9.2,0,0,0,2.6.6,9,9,0,0,0,6.6-2.9l14-14a8.9,8.9,0,0,0,2.6-8.3,8.7,8.7,0,0,0-5.1-6.6A78.6,78.6,0,0,0,319.8,0H82.2q-34,0-58.1,24.1T0,82.2V319.8q0,34,24.1,58.1T82.2,402H319.8q34,0,58.1-24.1T402,319.8V229Q402,223,396.3,220.7Z" fill="#f63249"/><path d="M468,56.8L436.5,25.4a22.8,22.8,0,0,0-32.5,0L219.3,210.1,144.2,135a22.8,22.8,0,0,0-32.5,0L80.2,166.4a22.8,22.8,0,0,0,0,32.6L203,321.8a22.8,22.8,0,0,0,32.5,0L467.9,89.4A22.7,22.7,0,0,0,468,56.8Z" fill="#f63249"/></svg>